<svg version="1.1" width="16in" height="12in" xmlns="http://www.w3.org/2000/svg"> 
<path d="M 261.83592134998406 391.3389877695105
L 243.29490168754404 334.2755967917505
L 303.29490168754404 334.2755967917505
L 351.83592134998406 369.5427119293305
L 400.37694101248405 334.2755967917505
L 418.91796067498404 391.3389877695105
L 370.37694101248405 426.6061029070305
L 418.91796067498404 461.8732180446105
L 478.91796067498404 461.8732180446105
L 497.45898033748404 518.9366090223104
L 545.9999999999841 483.6694938847305
L 527.458980337484 540.7328848624305
L 478.91796067498404 576.0000000000105
L 527.458980337484 611.2671151375305
L 545.9999999999841 668.3305061152305
L 527.458980337484 725.3938970929905
L 478.91796067498404 760.6610122305104
L 497.45898033748404 817.7244032082106
L 478.91796067498404 874.7877941859105
L 497.45898033748404 931.8511851636705
L 545.9999999999841 967.1183003011904
L 527.458980337484 910.0549093234905
L 545.9999999999841 852.9915183457904
L 594.541019662484 817.7244032082106
L 654.541019662484 817.7244032082106
L 673.0820393249841 760.6610122305104
L 654.541019662484 703.5976212528104
L 703.0820393249841 668.3305061152305
L 721.623058987484 611.2671151375305
L 673.0820393249841 576.0000000000105
L 721.623058987484 540.7328848624305
L 770.164078649984 576.0000000000105
L 830.164078649984 576.0000000000105
L 890.164078649984 576.0000000000105
L 938.7050983124841 540.7328848624305
L 878.7050983124841 540.7328848624305
L 860.164078649984 483.6694938847305
L 811.623058987484 518.9366090223104
L 763.0820393249841 483.6694938847305
L 781.623058987484 426.6061029070305
L 763.0820393249841 369.5427119293305
L 703.0820393249841 369.5427119293305
L 751.623058987484 334.2755967917505
L 703.0820393249841 299.0084816542305
L 654.541019662484 334.2755967917505
L 605.9999999999841 369.5427119293305
L 545.9999999999841 369.5427119293305
L 594.541019662484 334.2755967917505
L 575.9999999999841 277.2122058140505
L 527.458980337484 241.94509067653053
L 545.9999999999841 299.0084816542305
L 497.45898033748404 334.2755967917505
L 478.91796067498404 391.3389877695105
L 527.458980337484 426.6061029070305
L 587.458980337484 426.6061029070305
L 635.9999999999841 391.3389877695105
L 654.541019662484 334.2755967917505
L 673.0820393249841 391.3389877695105
L 654.541019662484 448.4023787472105
L 703.0820393249841 483.6694938847305
L 654.541019662484 518.9366090223104
L 594.541019662484 518.9366090223104
L 545.9999999999841 483.6694938847305
L 605.9999999999841 483.6694938847305
L 654.541019662484 448.4023787472105
L 635.9999999999841 391.3389877695105
M 673.0820393249841 391.3389877695105
L 721.623058987484 426.6061029070305
L 781.623058987484 426.6061029070305
L 830.164078649984 391.3389877695105
L 848.7050983124841 334.2755967917505
L 830.164078649984 277.2122058140505
L 811.623058987484 334.2755967917505
L 830.164078649984 391.3389877695105
L 878.7050983124841 426.6061029070305
L 830.164078649984 461.8732180446105
L 781.623058987484 426.6061029070305
M 830.164078649984 391.3389877695105
L 890.164078649984 391.3389877695105
L 938.7050983124841 426.6061029070305
L 957.246117974984 483.6694938847305
L 1005.787137637484 518.9366090223104
L 987.246117974984 576.0000000000105
L 938.7050983124841 611.2671151375305
L 957.246117974984 668.3305061152305
L 938.7050983124841 725.3938970929905
L 890.164078649984 760.6610122305104
L 830.164078649984 760.6610122305104
L 878.7050983124841 725.3938970929905
L 860.164078649984 668.3305061152305
L 878.7050983124841 611.2671151375305
L 830.164078649984 576.0000000000105
L 781.623058987484 611.2671151375305
L 763.0820393249841 668.3305061152305
L 781.623058987484 725.3938970929905
L 830.164078649984 760.6610122305104
L 811.623058987484 817.7244032082106
L 751.623058987484 817.7244032082106
L 703.0820393249841 782.4572880706905
L 654.541019662484 817.7244032082106
L 673.0820393249841 874.7877941859105
L 654.541019662484 931.8511851636705
L 635.9999999999841 874.7877941859105
L 575.9999999999841 874.7877941859105
L 527.458980337484 910.0549093234905
L 478.91796067498404 874.7877941859105
L 430.37694101248405 910.0549093234905
L 370.37694101248405 910.0549093234905
L 388.91796067498404 967.1183003011904
L 448.91796067498404 967.1183003011904
L 497.45898033748404 931.8511851636705
M 527.458980337484 910.0549093234905
L 587.458980337484 910.0549093234905
L 605.9999999999841 967.1183003011904
L 654.541019662484 931.8511851636705
L 703.0820393249841 967.1183003011904
L 763.0820393249841 967.1183003011904
L 781.623058987484 910.0549093234905
L 830.164078649984 874.7877941859105
L 811.623058987484 817.7244032082106
L 763.0820393249841 782.4572880706905
L 703.0820393249841 782.4572880706905
L 721.623058987484 725.3938970929905
L 781.623058987484 725.3938970929905
L 830.164078649984 690.1267819554105
L 878.7050983124841 725.3938970929905
L 897.246117974984 668.3305061152305
L 957.246117974984 668.3305061152305
L 1005.787137637484 633.0633909777105
L 987.246117974984 576.0000000000105
L 938.7050983124841 540.7328848624305
L 957.246117974984 483.6694938847305
L 897.246117974984 483.6694938847305
L 878.7050983124841 540.7328848624305
L 830.164078649984 576.0000000000105
L 811.623058987484 633.0633909777105
L 763.0820393249841 668.3305061152305
L 703.0820393249841 668.3305061152305
L 721.623058987484 725.3938970929905
L 673.0820393249841 760.6610122305104
M 635.9999999999841 760.6610122305104
L 587.458980337484 725.3938970929905
L 605.9999999999841 668.3305061152305
L 654.541019662484 703.5976212528104
L 635.9999999999841 760.6610122305104
L 654.541019662484 817.7244032082106
L 605.9999999999841 782.4572880706905
L 545.9999999999841 782.4572880706905
L 527.458980337484 725.3938970929905
L 587.458980337484 725.3938970929905
L 605.9999999999841 782.4572880706905
M 594.541019662484 817.7244032082106
L 575.9999999999841 874.7877941859105
M 545.9999999999841 852.9915183457904
L 497.45898033748404 817.7244032082106
L 545.9999999999841 782.4572880706905
L 594.541019662484 817.7244032082106
M 654.541019662484 817.7244032082106
L 703.0820393249841 852.9915183457904
L 721.623058987484 910.0549093234905
L 703.0820393249841 967.1183003011904
L 654.541019662484 1002.3854154387104
L 594.541019662484 1002.3854154387104
L 545.9999999999841 967.1183003011904
L 497.45898033748404 1002.3854154387104
L 437.45898033748404 1002.3854154387104
L 388.91796067498404 967.1183003011904
M 370.37694101248405 910.0549093234905
L 310.37694101248405 910.0549093234905
L 261.83592134998406 874.7877941859105
L 321.83592134998406 874.7877941859105
L 370.37694101248405 839.5206790483905
L 418.91796067498404 874.7877941859105
L 437.45898033748404 817.7244032082106
L 497.45898033748404 817.7244032082106
M 478.91796067498404 874.7877941859105
L 418.91796067498404 874.7877941859105
L 370.37694101248405 910.0549093234905
L 321.83592134998406 874.7877941859105
L 303.29490168754404 817.7244032082106
L 243.29490168754404 817.7244032082106
L 261.83592134998406 874.7877941859105
M 243.29490168754404 817.7244032082106
L 194.75388202504405 782.4572880706905
L 213.29490168754404 725.3938970929905
L 194.75388202504405 668.3305061152305
L 176.21286236254406 725.3938970929905
L 194.75388202504405 782.4572880706905
M 243.29490168754404 817.7244032082106
L 261.83592134998406 760.6610122305104
L 310.37694101248405 725.3938970929905
L 261.83592134998406 690.1267819554105
L 243.29490168754404 633.0633909777105
L 291.83592134998406 668.3305061152305
L 351.83592134998406 668.3305061152305
L 303.29490168754404 633.0633909777105
L 243.29490168754404 633.0633909777105
L 261.83592134998406 576.0000000000105
L 243.29490168754404 518.9366090223104
L 303.29490168754404 518.9366090223104
L 351.83592134998406 483.6694938847305
L 291.83592134998406 483.6694938847305
L 243.29490168754404 518.9366090223104
L 261.83592134998406 461.8732180446105
L 213.29490168754404 426.6061029070305
L 194.75388202504405 369.5427119293305
L 243.29490168754404 334.2755967917505
L 261.83592134998406 277.2122058140505
L 321.83592134998406 277.2122058140505
L 303.29490168754404 334.2755967917505
L 321.83592134998406 391.3389877695105
L 261.83592134998406 391.3389877695105
L 310.37694101248405 426.6061029070305
L 261.83592134998406 461.8732180446105
M 291.83592134998406 483.6694938847305
L 310.37694101248405 426.6061029070305
L 370.37694101248405 426.6061029070305
L 351.83592134998406 483.6694938847305
L 370.37694101248405 540.7328848624305
L 388.91796067498404 483.6694938847305
L 437.45898033748404 518.9366090223104
L 497.45898033748404 518.9366090223104
L 478.91796067498404 576.0000000000105
L 418.91796067498404 576.0000000000105
L 370.37694101248405 611.2671151375305
L 388.91796067498404 668.3305061152305
L 437.45898033748404 633.0633909777105
L 497.45898033748404 633.0633909777105
L 478.91796067498404 690.1267819554105
L 430.37694101248405 725.3938970929905
L 478.91796067498404 760.6610122305104
L 418.91796067498404 760.6610122305104
L 400.37694101248405 817.7244032082106
L 351.83592134998406 782.4572880706905
L 370.37694101248405 839.5206790483905
M 400.37694101248405 817.7244032082106
L 418.91796067498404 874.7877941859105
M 430.37694101248405 910.0549093234905
L 448.91796067498404 967.1183003011904
L 497.45898033748404 1002.3854154387104
M 545.9999999999841 967.1183003011904
L 605.9999999999841 967.1183003011904
L 654.541019662484 1002.3854154387104
M 721.623058987484 910.0549093234905
L 673.0820393249841 874.7877941859105
M 703.0820393249841 852.9915183457904
L 763.0820393249841 852.9915183457904
L 811.623058987484 817.7244032082106
M 848.7050983124841 817.7244032082106
L 830.164078649984 874.7877941859105
L 811.623058987484 931.8511851636705
L 763.0820393249841 967.1183003011904
M 781.623058987484 910.0549093234905
L 763.0820393249841 852.9915183457904
M 751.623058987484 817.7244032082106
L 703.0820393249841 852.9915183457904
M 721.623058987484 910.0549093234905
L 781.623058987484 910.0549093234905
M 830.164078649984 874.7877941859105
L 890.164078649984 874.7877941859105
L 938.7050983124841 839.5206790483905
L 957.246117974984 782.4572880706905
L 908.7050983124841 817.7244032082106
L 890.164078649984 760.6610122305104
M 878.7050983124841 725.3938970929905
L 938.7050983124841 725.3938970929905
L 957.246117974984 782.4572880706905
M 908.7050983124841 817.7244032082106
L 890.164078649984 874.7877941859105
M 908.7050983124841 817.7244032082106
L 848.7050983124841 817.7244032082106
L 830.164078649984 760.6610122305104
M 781.623058987484 725.3938970929905
L 763.0820393249841 782.4572880706905
M 654.541019662484 817.7244032082106
L 635.9999999999841 874.7877941859105
L 587.458980337484 910.0549093234905
M 437.45898033748404 817.7244032082106
L 418.91796067498404 760.6610122305104
L 370.37694101248405 725.3938970929905
L 418.91796067498404 690.1267819554105
L 437.45898033748404 633.0633909777105
L 418.91796067498404 576.0000000000105
L 370.37694101248405 540.7328848624305
L 321.83592134998406 576.0000000000105
L 303.29490168754404 633.0633909777105
M 291.83592134998406 668.3305061152305
L 310.37694101248405 725.3938970929905
L 370.37694101248405 725.3938970929905
L 388.91796067498404 668.3305061152305
M 351.83592134998406 668.3305061152305
L 370.37694101248405 611.2671151375305
L 321.83592134998406 576.0000000000105
L 261.83592134998406 576.0000000000105
L 213.29490168754404 540.7328848624305
L 194.75388202504405 483.6694938847305
L 146.21286236254406 518.9366090223104
L 164.75388202504405 576.0000000000105
L 146.21286236254406 633.0633909777105
L 127.67184270004407 576.0000000000105
L 146.21286236254406 518.9366090223104
M 164.75388202504405 576.0000000000105
L 213.29490168754404 540.7328848624305
M 243.29490168754404 518.9366090223104
L 194.75388202504405 483.6694938847305
L 176.21286236254406 426.6061029070305
L 194.75388202504405 369.5427119293305
M 213.29490168754404 426.6061029070305
L 261.83592134998406 391.3389877695105
M 213.29490168754404 426.6061029070305
L 194.75388202504405 483.6694938847305
M 164.75388202504405 576.0000000000105
L 213.29490168754404 611.2671151375305
L 194.75388202504405 668.3305061152305
L 243.29490168754404 633.0633909777105
M 213.29490168754404 611.2671151375305
L 261.83592134998406 576.0000000000105
M 321.83592134998406 576.0000000000105
L 303.29490168754404 518.9366090223104
M 388.91796067498404 483.6694938847305
L 370.37694101248405 426.6061029070305
L 430.37694101248405 426.6061029070305
L 478.91796067498404 461.8732180446105
L 527.458980337484 426.6061029070305
L 545.9999999999841 483.6694938847305
M 527.458980337484 426.6061029070305
L 545.9999999999841 369.5427119293305
L 497.45898033748404 334.2755967917505
L 478.91796067498404 277.2122058140505
L 430.37694101248405 241.94509067653053
L 448.91796067498404 184.88169969883052
L 388.91796067498404 184.88169969883052
L 437.45898033748404 149.61458456125047
L 497.45898033748404 149.61458456125047
L 448.91796067498404 184.88169969883052
L 497.45898033748404 220.14881483635048
L 478.91796067498404 277.2122058140505
L 527.458980337484 241.94509067653053
L 587.458980337484 241.94509067653053
L 635.9999999999841 277.2122058140505
L 654.541019662484 220.14881483635048
L 703.0820393249841 184.88169969883052
L 654.541019662484 149.61458456125047
L 594.541019662484 149.61458456125047
L 545.9999999999841 184.88169969883052
L 605.9999999999841 184.88169969883052
L 587.458980337484 241.94509067653053
M 575.9999999999841 277.2122058140505
L 635.9999999999841 277.2122058140505
L 654.541019662484 334.2755967917505
L 703.0820393249841 369.5427119293305
L 721.623058987484 426.6061029070305
L 703.0820393249841 483.6694938847305
L 763.0820393249841 483.6694938847305
L 781.623058987484 540.7328848624305
L 830.164078649984 576.0000000000105
L 811.623058987484 518.9366090223104
L 830.164078649984 461.8732180446105
M 860.164078649984 483.6694938847305
L 878.7050983124841 426.6061029070305
L 938.7050983124841 426.6061029070305
L 987.246117974984 461.8732180446105
L 1005.787137637484 518.9366090223104
M 938.7050983124841 611.2671151375305
L 890.164078649984 576.0000000000105
M 878.7050983124841 611.2671151375305
L 897.246117974984 668.3305061152305
M 860.164078649984 668.3305061152305
L 811.623058987484 633.0633909777105
L 830.164078649984 690.1267819554105
M 878.7050983124841 611.2671151375305
L 938.7050983124841 611.2671151375305
M 1005.787137637484 633.0633909777105
L 987.246117974984 690.1267819554105
L 938.7050983124841 725.3938970929905
M 781.623058987484 611.2671151375305
L 721.623058987484 611.2671151375305
L 770.164078649984 576.0000000000105
M 781.623058987484 540.7328848624305
L 721.623058987484 540.7328848624305
L 703.0820393249841 483.6694938847305
M 654.541019662484 518.9366090223104
L 635.9999999999841 576.0000000000105
L 654.541019662484 633.0633909777105
L 594.541019662484 633.0633909777105
L 575.9999999999841 576.0000000000105
L 527.458980337484 611.2671151375305
M 497.45898033748404 633.0633909777105
L 478.91796067498404 576.0000000000105
M 497.45898033748404 633.0633909777105
L 545.9999999999841 668.3305061152305
L 605.9999999999841 668.3305061152305
L 654.541019662484 633.0633909777105
L 673.0820393249841 576.0000000000105
L 654.541019662484 518.9366090223104
L 605.9999999999841 483.6694938847305
L 587.458980337484 426.6061029070305
L 605.9999999999841 369.5427119293305
M 594.541019662484 334.2755967917505
L 545.9999999999841 299.0084816542305
M 594.541019662484 334.2755967917505
L 654.541019662484 334.2755967917505
L 673.0820393249841 277.2122058140505
L 654.541019662484 220.14881483635048
L 605.9999999999841 184.88169969883052
L 654.541019662484 149.61458456125047
M 703.0820393249841 184.88169969883052
L 763.0820393249841 184.88169969883052
L 811.623058987484 220.14881483635048
L 830.164078649984 277.2122058140505
L 781.623058987484 241.94509067653053
L 721.623058987484 241.94509067653053
L 673.0820393249841 277.2122058140505
M 703.0820393249841 299.0084816542305
L 763.0820393249841 299.0084816542305
L 781.623058987484 241.94509067653053
L 763.0820393249841 184.88169969883052
M 703.0820393249841 184.88169969883052
L 721.623058987484 241.94509067653053
L 703.0820393249841 299.0084816542305
M 751.623058987484 334.2755967917505
L 811.623058987484 334.2755967917505
L 763.0820393249841 299.0084816542305
M 811.623058987484 334.2755967917505
L 763.0820393249841 369.5427119293305
M 848.7050983124841 334.2755967917505
L 908.7050983124841 334.2755967917505
L 890.164078649984 277.2122058140505
L 938.7050983124841 312.4793209516305
L 957.246117974984 369.5427119293305
L 938.7050983124841 426.6061029070305
M 890.164078649984 391.3389877695105
L 908.7050983124841 334.2755967917505
L 957.246117974984 369.5427119293305
M 878.7050983124841 426.6061029070305
L 897.246117974984 483.6694938847305
M 890.164078649984 277.2122058140505
L 830.164078649984 277.2122058140505
M 545.9999999999841 184.88169969883052
L 527.458980337484 241.94509067653053
M 497.45898033748404 220.14881483635048
L 545.9999999999841 184.88169969883052
L 497.45898033748404 149.61458456125047
M 388.91796067498404 184.88169969883052
L 370.37694101248405 241.94509067653053
L 310.37694101248405 241.94509067653053
L 261.83592134998406 277.2122058140505
M 321.83592134998406 277.2122058140505
L 370.37694101248405 312.4793209516305
L 418.91796067498404 277.2122058140505
L 400.37694101248405 334.2755967917505
M 370.37694101248405 312.4793209516305
L 351.83592134998406 369.5427119293305
L 370.37694101248405 426.6061029070305
L 321.83592134998406 391.3389877695105
M 418.91796067498404 391.3389877695105
L 437.45898033748404 334.2755967917505
L 418.91796067498404 277.2122058140505
L 370.37694101248405 241.94509067653053
L 430.37694101248405 241.94509067653053
M 418.91796067498404 277.2122058140505
L 478.91796067498404 277.2122058140505
M 497.45898033748404 334.2755967917505
L 437.45898033748404 334.2755967917505
M 418.91796067498404 391.3389877695105
L 478.91796067498404 391.3389877695105
L 430.37694101248405 426.6061029070305
M 418.91796067498404 461.8732180446105
L 437.45898033748404 518.9366090223104
L 418.91796067498404 576.0000000000105
M 351.83592134998406 668.3305061152305
L 370.37694101248405 725.3938970929905
L 321.83592134998406 760.6610122305104
L 303.29490168754404 817.7244032082106
L 351.83592134998406 782.4572880706905
L 370.37694101248405 725.3938970929905
L 430.37694101248405 725.3938970929905
M 418.91796067498404 690.1267819554105
L 478.91796067498404 690.1267819554105
L 527.458980337484 725.3938970929905
M 545.9999999999841 668.3305061152305
L 594.541019662484 633.0633909777105
M 575.9999999999841 576.0000000000105
L 635.9999999999841 576.0000000000105
M 654.541019662484 633.0633909777105
L 703.0820393249841 668.3305061152305
M 575.9999999999841 576.0000000000105
L 527.458980337484 540.7328848624305
M 575.9999999999841 576.0000000000105
L 594.541019662484 518.9366090223104
M 370.37694101248405 241.94509067653053
L 321.83592134998406 277.2122058140505
M 146.21286236254406 633.0633909777105
L 194.75388202504405 668.3305061152305
M 213.29490168754404 725.3938970929905
L 261.83592134998406 760.6610122305104
L 321.83592134998406 760.6610122305104
M 261.83592134998406 690.1267819554105
L 213.29490168754404 725.3938970929905" fill="none" stroke="red" stroke-width="0.3"/>
<circle cx="576" cy="576" r="472.76585140122614"  fill="none" stroke="black" stroke-width="0.3"/>
</svg>
